<svg width="68" height="68" viewBox="0 0 68 68" fill="none" xmlns="http://www.w3.org/2000/svg">
<path d="M47.4009 61.4456C39.7903 69.0562 27.3449 69.0562 19.7527 61.4456L5.70796 47.4009C-1.90265 39.7903 -1.90265 27.3449 5.70796 19.7527L19.7527 5.70796C27.3449 -1.90265 39.8087 -1.90265 47.4009 5.70796L61.4456 19.7527C69.0562 27.3449 69.0562 39.8087 61.4456 47.4009L47.4009 61.4456Z" fill="#E30413"/>
<path d="M25.2348 54.2224H25.3267C26.4665 54.1673 27.3672 53.2113 27.3121 52.0532C27.2569 50.9135 26.2826 50.0127 25.1613 50.0678C24.6098 50.0678 24.095 50.3252 23.709 50.7296C23.323 51.1341 23.1391 51.6672 23.1575 52.2187C23.2127 53.34 24.1134 54.204 25.2348 54.204" fill="#FAFAFA"/>
<path d="M33.1235 15.8569C34.2633 15.8569 35.164 16.2062 35.9178 16.9416C37.5171 18.5225 38.3443 21.7947 38.2708 26.1515C38.1605 32.7143 36.7634 38.0086 33.8956 42.8434C33.3809 43.7258 33.6566 44.8655 34.539 45.3987C34.8331 45.5641 35.164 45.656 35.4949 45.656C36.1567 45.656 36.7634 45.3067 37.0943 44.7552C41.2121 37.8616 41.929 30.1958 42.0026 26.225C42.0577 22.4197 41.5062 17.2541 38.5465 14.3128C37.0943 12.8789 35.2743 12.1436 33.1419 12.1436H32.7926C30.6602 12.1436 28.8402 12.8789 27.388 14.3128C24.4099 17.2725 23.8584 22.4197 23.9319 26.225C23.9503 27.8244 24.3548 42.1265 30.3109 49.7555C31.2484 50.9504 32.2779 51.9247 33.3809 52.66C34.5022 53.3953 36.0648 54.2593 38.3076 54.2593C38.8958 54.2593 39.5208 54.2042 40.1459 54.0755C40.1826 54.0755 40.2194 54.0755 40.2378 54.0755C43.6938 53.2666 47.4624 50.0864 50.3117 45.5641C50.5875 45.1413 50.661 44.6449 50.5507 44.167C50.4404 43.689 50.1463 43.2662 49.7235 43.0088C49.4294 42.825 49.0801 42.7147 48.7308 42.7147C48.0874 42.7147 47.4991 43.0456 47.1498 43.5971C44.8887 47.1818 41.8739 49.8658 39.4473 50.454C39.0613 50.5276 38.6752 50.5643 38.3259 50.5643C37.0207 50.5643 36.1935 50.0864 35.4398 49.59C34.6677 49.0937 33.9324 48.3951 33.2522 47.5127C29.0425 42.0897 27.7556 31.5745 27.6637 26.2067C27.5902 21.8499 28.4174 18.596 30.0168 16.9967C30.7521 16.2614 31.6712 15.9121 32.811 15.9121H33.1419L33.1235 15.8569Z" fill="#FAFAFA"/>
</svg>
