<svg width="38" height="38" viewBox="0 0 38 38" fill="none" xmlns="http://www.w3.org/2000/svg">
<circle cx="19" cy="19" r="18" stroke="#838383" stroke-width="2"/>
<g clip-path="url(#clip0_192_6509)">
<path d="M11.875 15.833L16.6274 11.083H25.3318C25.7688 11.083 26.125 11.4432 26.125 11.8683V26.131C26.1248 26.3394 26.0419 26.5391 25.8945 26.6864C25.7471 26.8336 25.5473 26.9163 25.3389 26.9163H12.6611C12.5572 26.9156 12.4544 26.8944 12.3586 26.854C12.2628 26.8135 12.176 26.7546 12.103 26.6806C12.03 26.6065 11.9723 26.5188 11.9332 26.4225C11.894 26.3262 11.8743 26.2231 11.875 26.1191V15.833ZM17.4167 12.6663V16.6247H13.4584V25.333H24.5417V12.6663H17.4167Z" fill="#838383"/>
</g>
<defs>
<clipPath id="clip0_192_6509">
<rect width="19" height="19" fill="white" transform="translate(9.5 9.5)"/>
</clipPath>
</defs>
</svg>
