<svg width="48" height="48" viewBox="0 0 48 48" fill="none" xmlns="http://www.w3.org/2000/svg">
<circle cx="24" cy="24" r="23" stroke="#838383" stroke-width="2"/>
<g clip-path="url(#clip0_24_50877)">
<path d="M18 31H15C14.7348 31 14.4804 30.8946 14.2929 30.7071C14.1054 30.5196 14 30.2652 14 30V20C14 19.7348 14.1054 19.4804 14.2929 19.2929C14.4804 19.1054 14.7348 19 15 19H18V15C18 14.7348 18.1054 14.4804 18.2929 14.2929C18.4804 14.1054 18.7348 14 19 14H29C29.2652 14 29.5196 14.1054 29.7071 14.2929C29.8946 14.4804 30 14.7348 30 15V19H33C33.2652 19 33.5196 19.1054 33.7071 19.2929C33.8946 19.4804 34 19.7348 34 20V30C34 30.2652 33.8946 30.5196 33.7071 30.7071C33.5196 30.8946 33.2652 31 33 31H30V33C30 33.2652 29.8946 33.5196 29.7071 33.7071C29.5196 33.8946 29.2652 34 29 34H19C18.7348 34 18.4804 33.8946 18.2929 33.7071C18.1054 33.5196 18 33.2652 18 33V31ZM18 29V28C18 27.7348 18.1054 27.4804 18.2929 27.2929C18.4804 27.1054 18.7348 27 19 27H29C29.2652 27 29.5196 27.1054 29.7071 27.2929C29.8946 27.4804 30 27.7348 30 28V29H32V21H16V29H18ZM20 16V19H28V16H20ZM20 29V32H28V29H20ZM17 22H20V24H17V22Z" fill="#838383"/>
</g>
<defs>
<clipPath id="clip0_24_50877">
<rect width="24" height="24" fill="white" transform="translate(12 12)"/>
</clipPath>
</defs>
</svg>
