<svg width="48" height="48" viewBox="0 0 48 48" fill="none" xmlns="http://www.w3.org/2000/svg">
<circle cx="24" cy="24" r="23" stroke="#838383" stroke-width="2"/>
<g clip-path="url(#clip0_24_50872)">
<path d="M25.1202 29.0227L20.9212 26.7327C20.373 27.3188 19.6612 27.7264 18.8783 27.9026C18.0954 28.0788 17.2776 28.0154 16.5311 27.7208C15.7847 27.4261 15.1442 26.9137 14.6928 26.2502C14.2414 25.5867 14 24.8027 14 24.0002C14 23.1977 14.2414 22.4138 14.6928 21.7503C15.1442 21.0868 15.7847 20.5744 16.5311 20.2797C17.2776 19.985 18.0954 19.9216 18.8783 20.0978C19.6612 20.274 20.373 20.6817 20.9212 21.2677L25.1212 18.9777C24.8828 18.0338 24.9968 17.0353 25.4418 16.1694C25.8869 15.3035 26.6325 14.6297 27.5389 14.2742C28.4452 13.9187 29.4501 13.906 30.3652 14.2384C31.2803 14.5709 32.0427 15.2256 32.5095 16.08C32.9764 16.9343 33.1156 17.9296 32.9011 18.8793C32.6866 19.8289 32.1332 20.6678 31.3444 21.2385C30.5557 21.8093 29.5859 22.0728 28.6168 21.9797C27.6477 21.8866 26.7458 21.4432 26.0802 20.7327L21.8802 23.0227C22.0414 23.6641 22.0414 24.3354 21.8802 24.9767L26.0792 27.2667C26.7448 26.5562 27.6467 26.1128 28.6158 26.0197C29.5849 25.9266 30.5547 26.1901 31.3434 26.7609C32.1322 27.3317 32.6856 28.1705 32.9001 29.1202C33.1146 30.0698 32.9754 31.0651 32.5085 31.9195C32.0417 32.7738 31.2793 33.4286 30.3642 33.761C29.4491 34.0934 28.4442 34.0807 27.5379 33.7252C26.6315 33.3697 25.8859 32.6959 25.4408 31.83C24.9958 30.9641 24.8818 29.9656 25.1202 29.0217V29.0227ZM18.0002 25.9997C18.5306 25.9997 19.0393 25.789 19.4144 25.4139C19.7895 25.0389 20.0002 24.5301 20.0002 23.9997C20.0002 23.4693 19.7895 22.9606 19.4144 22.5855C19.0393 22.2104 18.5306 21.9997 18.0002 21.9997C17.4698 21.9997 16.9611 22.2104 16.586 22.5855C16.2109 22.9606 16.0002 23.4693 16.0002 23.9997C16.0002 24.5301 16.2109 25.0389 16.586 25.4139C16.9611 25.789 17.4698 25.9997 18.0002 25.9997ZM29.0002 19.9997C29.5306 19.9997 30.0393 19.789 30.4144 19.4139C30.7895 19.0389 31.0002 18.5301 31.0002 17.9997C31.0002 17.4693 30.7895 16.9606 30.4144 16.5855C30.0393 16.2104 29.5306 15.9997 29.0002 15.9997C28.4698 15.9997 27.9611 16.2104 27.586 16.5855C27.2109 16.9606 27.0002 17.4693 27.0002 17.9997C27.0002 18.5301 27.2109 19.0389 27.586 19.4139C27.9611 19.789 28.4698 19.9997 29.0002 19.9997ZM29.0002 31.9997C29.5306 31.9997 30.0393 31.789 30.4144 31.4139C30.7895 31.0389 31.0002 30.5301 31.0002 29.9997C31.0002 29.4693 30.7895 28.9606 30.4144 28.5855C30.0393 28.2104 29.5306 27.9997 29.0002 27.9997C28.4698 27.9997 27.9611 28.2104 27.586 28.5855C27.2109 28.9606 27.0002 29.4693 27.0002 29.9997C27.0002 30.5301 27.2109 31.0389 27.586 31.4139C27.9611 31.789 28.4698 31.9997 29.0002 31.9997Z" fill="#838383"/>
</g>
<defs>
<clipPath id="clip0_24_50872">
<rect width="24" height="24" fill="white" transform="translate(12 12)"/>
</clipPath>
</defs>
</svg>
